# xmcd
#
# Track frame offsets:
#	150
#	13062
#	28416
#	41331
#	52010
#	66022
#	79796
#	94090
#	110298
#	127814
#	138360
#	151421
#	165221
#	181987
#	193114
#	206969
#	222382
#	238120
#
# Disc length: 3381 seconds
#
# Revision: 1
# Processed by: cddbd v1.5.2PL0 Copyright (c) Steve Scherf et al.
# Submitted via: audiograbber 1.83.01
#
DISCID=f90d3312
DTITLE=various  - Tex Mex Favourites CD-2
DYEAR=1900
DGENRE=Country
TTITLE0=Chano Cadena - Quiereme
TTITLE1=Freddy Fender - Cielito Lindo
TTITLE2=Ruben Naranjo - el Coyote
TTITLE3=Los Nuevos Nobles - Perdiendo
TTITLE4=Michelle - Tomame
TTITLE5=Michelle - Amor Secreto
TTITLE6=Lisa Lopez - Wrong time to love you
TTITLE7=Los Sunshiners - Me quedo con las ganas
TTITLE8=La Forma - Derepende
TTITLE9=Gilberto Perez - Selvia
TTITLE10=Janie C. Cactus Country Band - Lagrimas de oro
TTITLE11=Chano Cadena - Necesito tu amor
TTITLE12=Texas Revolution - Conchita la viuda alegre
TTITLE13=Fiebre - En las cantinas
TTITLE14=Isidro Lopez - Kaw-Liga
TTITLE15=linda Escobar y Los Rancheros - Sin problemas
TTITLE16=Dezeo - Nomas Contigo
TTITLE17=Joe Alaniz - Las ancias de un beso
EXTD=
EXTT0=
EXTT1=
EXTT2=
EXTT3=
EXTT4=
EXTT5=
EXTT6=
EXTT7=
EXTT8=
EXTT9=
EXTT10=
EXTT11=
EXTT12=
EXTT13=
EXTT14=
EXTT15=
EXTT16=
EXTT17=
PLAYORDER=
